<svg xmlns="http://www.w3.org/2000/svg" xmlns:xlink="http://www.w3.org/1999/xlink" width="512" height="512" viewBox="0 0 512 512">
<rect width="512" height="512" rx="112" fill="#1C140D"></rect>
<g transform="translate(56.00 56.00) scale(0.49383)"><defs><clipPath id="a8bd5cadeb"><path d="M 367 21.15625 L 461 21.15625 L 461 253 L 367 253 Z M 367 21.15625 " clip-rule="nonzero"></path></clipPath><clipPath id="b210b55b35"><path d="M 558 355 L 789.15625 355 L 789.15625 450 L 558 450 Z M 558 355 " clip-rule="nonzero"></path></clipPath><clipPath id="9b19aa6a7f"><path d="M 367 557 L 462 557 L 462 789.15625 L 367 789.15625 Z M 367 557 " clip-rule="nonzero"></path></clipPath><clipPath id="9deeb8f3e6"><path d="M 21.15625 337 L 151 337 L 151 468 L 21.15625 468 Z M 21.15625 337 " clip-rule="nonzero"></path></clipPath></defs><path fill="#03ccd9" d="M 340.617188 257.058594 C 356.019531 257.058594 370.855469 259.480469 384.773438 263.960938 C 326.5 282.71875 284.316406 337.609375 284.316406 402.402344 C 284.316406 467.195312 326.503906 522.070312 384.773438 540.832031 C 370.855469 545.3125 356.019531 547.75 340.617188 547.75 C 260.75 547.746094 196.003906 482.671875 196.003906 402.402344 C 196.003906 322.132812 260.75 257.058594 340.617188 257.058594 Z M 340.617188 257.058594 " fill-opacity="1" fill-rule="nonzero"></path><path fill="#fff6d5" d="M 340.617188 257.058594 C 346.535156 257.058594 352.371094 257.421875 358.101562 258.113281 C 286.480469 266.792969 230.972656 328.078125 230.972656 402.402344 C 230.972656 476.726562 286.480469 538.007812 358.101562 546.683594 C 352.371094 547.378906 346.535156 547.75 340.617188 547.75 C 260.75 547.746094 196.003906 482.671875 196.003906 402.402344 C 196.003906 322.132812 260.75 257.058594 340.617188 257.058594 Z M 340.617188 257.058594 " fill-opacity="1" fill-rule="nonzero"></path><path fill="#eaaa00" d="M 430.117188 263.003906 C 489.460938 281.117188 532.652344 336.539062 532.652344 402.101562 C 532.652344 467.660156 489.460938 523.074219 430.117188 541.1875 C 370.773438 523.074219 327.582031 467.660156 327.582031 402.101562 C 327.582031 336.539062 370.773438 281.117188 430.117188 263.003906 Z M 430.117188 263.003906 " fill-opacity="1" fill-rule="nonzero"></path><path fill="#eaaa00" d="M 610.890625 206.433594 L 489.386719 268.679688 L 551.621094 330.035156 Z M 610.890625 206.433594 " fill-opacity="1" fill-rule="nonzero"></path><path fill="#eaaa00" d="M 612.328125 599.496094 L 553.625 475.777344 L 490.953125 536.679688 Z M 612.328125 599.496094 " fill-opacity="1" fill-rule="nonzero"></path><g clip-path="url(#a8bd5cadeb)"><path fill="#eaaa00" d="M 438.714844 251.683594 C 438.714844 253.589844 391.296875 252.480469 367.589844 251.683594 C 365.316406 226.167969 368.714844 167.929688 400.484375 139.101562 C 432.253906 110.269531 441.777344 48.457031 442.566406 21.15625 C 452.050781 28.601562 476.054688 106.636719 446.714844 153.097656 C 417.375 199.5625 438.714844 249.300781 438.714844 251.683594 Z M 438.714844 251.683594 " fill-opacity="1" fill-rule="nonzero"></path></g><g clip-path="url(#b210b55b35)"><path fill="#eaaa00" d="M 559.78125 427.0625 C 557.882812 427.0625 558.992188 379.40625 559.78125 355.578125 C 585.167969 353.296875 643.113281 356.710938 671.800781 388.640625 C 700.488281 420.566406 761.988281 430.136719 789.15625 430.933594 C 781.75 440.464844 704.101562 464.589844 657.871094 435.101562 C 611.640625 405.617188 562.152344 427.0625 559.78125 427.0625 Z M 559.78125 427.0625 " fill-opacity="1" fill-rule="nonzero"></path></g><g clip-path="url(#9b19aa6a7f)"><path fill="#eaaa00" d="M 389.40625 558.628906 C 389.40625 556.722656 436.824219 557.832031 460.53125 558.628906 C 462.804688 584.140625 459.40625 642.378906 427.636719 671.210938 C 395.867188 700.042969 386.34375 761.851562 385.554688 789.15625 C 376.070312 781.707031 352.066406 703.675781 381.40625 657.210938 C 410.746094 610.75 389.40625 561.007812 389.40625 558.628906 Z M 389.40625 558.628906 " fill-opacity="1" fill-rule="nonzero"></path></g><path fill="#03ccd9" d="M 283.722656 595.121094 L 298.621094 627.203125 L 330.542969 642.179688 L 298.621094 657.152344 L 283.722656 689.238281 L 268.820312 657.152344 L 236.898438 642.179688 L 268.820312 627.203125 Z M 283.722656 595.121094 " fill-opacity="1" fill-rule="nonzero"></path><path fill="#03ccd9" d="M 184.742188 489.664062 L 199.640625 521.75 L 231.5625 536.722656 L 199.640625 551.699219 L 184.742188 583.78125 L 169.84375 551.699219 L 137.917969 536.722656 L 169.84375 521.75 Z M 184.742188 489.664062 " fill-opacity="1" fill-rule="nonzero"></path><path fill="#03ccd9" d="M 184.742188 215.621094 L 199.640625 247.703125 L 231.5625 262.679688 L 199.640625 277.652344 L 184.742188 309.738281 L 169.84375 277.652344 L 137.917969 262.679688 L 169.84375 247.703125 Z M 184.742188 215.621094 " fill-opacity="1" fill-rule="nonzero"></path><path fill="#03ccd9" d="M 283.722656 114.984375 L 298.621094 147.070312 L 330.542969 162.042969 L 298.621094 177.019531 L 283.722656 209.105469 L 268.820312 177.019531 L 236.898438 162.042969 L 268.820312 147.070312 Z M 283.722656 114.984375 " fill-opacity="1" fill-rule="nonzero"></path><g clip-path="url(#9deeb8f3e6)"><path fill="#03ccd9" d="M 85.761719 337.148438 L 106.316406 381.414062 L 150.363281 402.074219 L 106.316406 422.734375 L 85.761719 467.003906 L 65.203125 422.734375 L 21.15625 402.074219 L 65.203125 381.414062 Z M 85.761719 337.148438 " fill-opacity="1" fill-rule="nonzero"></path></g><path fill="#ffc229" d="M 430.117188 262.976562 C 289.53125 376.871094 371.539062 495.988281 430.117188 541.160156 C 423.597656 539.074219 418.957031 537.085938 412.929688 534.609375 C 406.40625 531.925781 399.464844 527.679688 393.074219 523.585938 C 376.792969 513.164062 363.144531 498.867188 351.882812 482.1875 C 341.140625 466.960938 328.765625 439.597656 327.878906 407.726562 C 326.480469 377.050781 335.59375 339.589844 361.957031 308.25 C 389.519531 275.488281 421.226562 266.253906 430.117188 262.976562 Z M 430.117188 262.976562 " fill-opacity="1" fill-rule="nonzero"></path></g>
</svg>