<svg xmlns="http://www.w3.org/2000/svg" xmlns:xlink="http://www.w3.org/1999/xlink" width="1080" zoomAndPan="magnify" viewBox="0 0 810 809.999993" height="1080" preserveAspectRatio="xMidYMid meet" version="1.0"><defs><g></g><clipPath id="eee4877281"><rect x="0" width="678" y="0" height="211"></rect></clipPath><clipPath id="1f8c9155bc"><path d="M 364 17.609375 L 441 17.609375 L 441 207 L 364 207 Z M 364 17.609375 " clip-rule="nonzero"></path></clipPath><clipPath id="ed5a62e009"><path d="M 520 290 L 708.75 290 L 708.75 368 L 520 368 Z M 520 290 " clip-rule="nonzero"></path></clipPath><clipPath id="3898f32123"><path d="M 364 455 L 441 455 L 441 644.609375 L 364 644.609375 Z M 364 455 " clip-rule="nonzero"></path></clipPath><clipPath id="572db1af8b"><path d="M 81.75 275 L 188 275 L 188 382 L 81.75 382 Z M 81.75 275 " clip-rule="nonzero"></path></clipPath></defs><g transform="matrix(1, 0, 0, 1, 68, 588)"><g clip-path="url(#eee4877281)"><g fill="#eaaa00" fill-opacity="1"><g transform="translate(1.942524, 161.231065)"><g><path d="M 122.421875 -132.34375 L 68.859375 -78.78125 L 122.421875 0 L 88.296875 0 L 48.609375 -58.53125 L 37.109375 -47.03125 L 37.109375 0 L 8.921875 0 L 8.921875 -132.34375 L 37.109375 -132.34375 L 37.109375 -86.90625 L 82.546875 -132.34375 Z M 122.421875 -132.34375 "></path></g></g></g><g fill="#eaaa00" fill-opacity="1"><g transform="translate(124.175056, 161.231065)"><g><path d="M 36.515625 -111.515625 L 8.328125 -111.515625 L 8.328125 -132.34375 L 36.515625 -132.34375 Z M 36.515625 0 L 8.328125 0 L 8.328125 -104.171875 L 36.515625 -104.171875 Z M 36.515625 0 "></path></g></g></g><g fill="#eaaa00" fill-opacity="1"><g transform="translate(169.020087, 161.231065)"><g><path d="M 87.90625 -132.34375 L 115.875 -132.34375 L 115.875 0 L 87.90625 0 L 87.90625 -6.9375 C 79.175781 -2.3125 69.78125 0 59.71875 0 C 44.113281 0 30.820312 -5.09375 19.84375 -15.28125 C 8.863281 -25.46875 3.375 -37.734375 3.375 -52.078125 C 3.375 -66.429688 8.863281 -78.703125 19.84375 -88.890625 C 30.820312 -99.078125 44.113281 -104.171875 59.71875 -104.171875 C 69.78125 -104.171875 79.175781 -101.859375 87.90625 -97.234375 Z M 80.359375 -35.921875 C 85.390625 -40.546875 87.90625 -45.929688 87.90625 -52.078125 C 87.90625 -58.234375 85.390625 -63.625 80.359375 -68.25 C 74.804688 -73.414062 67.925781 -76 59.71875 -76 C 51.519531 -76 44.578125 -73.414062 38.890625 -68.25 C 33.992188 -63.625 31.546875 -58.234375 31.546875 -52.078125 C 31.546875 -45.929688 33.992188 -40.546875 38.890625 -35.921875 C 44.578125 -30.753906 51.519531 -28.171875 59.71875 -28.171875 C 67.925781 -28.171875 74.804688 -30.753906 80.359375 -35.921875 Z M 80.359375 -35.921875 "></path></g></g></g><g fill="#eaaa00" fill-opacity="1"><g transform="translate(293.435369, 161.231065)"><g><path d="M 90.28125 -104.171875 L 118.265625 -104.171875 L 118.265625 0 L 90.28125 0 L 90.28125 -6.9375 C 81.550781 -2.3125 72.160156 0 62.109375 0 C 46.628906 0 33.398438 -5.054688 22.421875 -15.171875 C 11.441406 -25.296875 5.882812 -37.5 5.75 -51.78125 C 5.75 -51.78125 5.75 -51.847656 5.75 -51.984375 L 5.75 -104.171875 L 33.9375 -104.171875 L 33.9375 -51.984375 C 33.9375 -45.898438 36.378906 -40.546875 41.265625 -35.921875 C 46.953125 -30.753906 53.894531 -28.171875 62.09375 -28.171875 C 70.300781 -28.171875 77.179688 -30.753906 82.734375 -35.921875 C 87.765625 -40.546875 90.28125 -45.898438 90.28125 -51.984375 Z M 90.28125 -104.171875 "></path></g></g></g><g fill="#eaaa00" fill-opacity="1"><g transform="translate(420.231819, 161.231065)"><g><path d="M 120.84375 -52.390625 C 120.84375 -52.253906 120.84375 -52.117188 120.84375 -51.984375 L 120.84375 0 L 92.859375 0 L 92.859375 -51.984375 C 92.859375 -58.203125 90.347656 -63.625 85.328125 -68.25 C 79.765625 -73.414062 72.882812 -76 64.6875 -76 C 56.488281 -76 49.539062 -73.414062 43.84375 -68.25 C 38.957031 -63.625 36.515625 -58.203125 36.515625 -51.984375 L 36.515625 0 L 8.328125 0 L 8.328125 -104.171875 L 36.515625 -104.171875 L 36.515625 -97.234375 C 45.109375 -101.859375 54.5 -104.171875 64.6875 -104.171875 C 80.164062 -104.171875 93.394531 -99.109375 104.375 -88.984375 C 115.351562 -78.867188 120.84375 -66.671875 120.84375 -52.390625 Z M 120.84375 -52.390625 "></path></g></g></g><g fill="#eaaa00" fill-opacity="1"><g transform="translate(547.226685, 161.231065)"><g><path d="M 88.09375 -104.171875 L 116.078125 -104.171875 L 116.078125 0 L 88.09375 0 L 88.09375 -6.9375 C 79.363281 -2.3125 69.972656 0 59.921875 0 C 44.316406 0 31.023438 -5.09375 20.046875 -15.28125 C 9.066406 -25.46875 3.578125 -37.734375 3.578125 -52.078125 C 3.578125 -66.429688 9.066406 -78.703125 20.046875 -88.890625 C 31.023438 -99.078125 44.316406 -104.171875 59.921875 -104.171875 C 69.972656 -104.171875 79.363281 -101.859375 88.09375 -97.234375 Z M 80.5625 -35.921875 C 85.582031 -40.546875 88.09375 -45.929688 88.09375 -52.078125 C 88.09375 -58.234375 85.582031 -63.625 80.5625 -68.25 C 75 -73.414062 68.117188 -76 59.921875 -76 C 51.722656 -76 44.78125 -73.414062 39.09375 -68.25 C 34.195312 -63.625 31.75 -58.234375 31.75 -52.078125 C 31.75 -45.929688 34.195312 -40.546875 39.09375 -35.921875 C 44.78125 -30.753906 51.722656 -28.171875 59.921875 -28.171875 C 68.117188 -28.171875 75 -30.753906 80.5625 -35.921875 Z M 80.5625 -35.921875 "></path></g></g></g></g></g><path fill="#03ccd9" d="M 342.5625 210.199219 C 355.132812 210.199219 367.246094 212.179688 378.609375 215.835938 C 331.035156 231.152344 296.59375 275.960938 296.59375 328.859375 C 296.597656 381.757812 331.039062 426.558594 378.609375 441.875 C 367.246094 445.535156 355.136719 447.523438 342.5625 447.523438 C 277.355469 447.519531 224.496094 394.394531 224.496094 328.859375 C 224.496094 263.328125 277.355469 210.199219 342.5625 210.199219 Z M 342.5625 210.199219 " fill-opacity="1" fill-rule="nonzero"></path><path fill="#fff6d5" d="M 342.5625 210.199219 C 347.390625 210.199219 352.15625 210.496094 356.835938 211.0625 C 298.363281 218.148438 253.042969 268.183594 253.042969 328.859375 C 253.046875 389.539062 298.363281 439.570312 356.835938 446.652344 C 352.15625 447.21875 347.390625 447.523438 342.5625 447.523438 C 277.355469 447.519531 224.496094 394.394531 224.496094 328.859375 C 224.496094 263.328125 277.355469 210.199219 342.5625 210.199219 Z M 342.5625 210.199219 " fill-opacity="1" fill-rule="nonzero"></path><path fill="#eaaa00" d="M 415.628906 215.054688 C 464.078125 229.839844 499.339844 275.089844 499.339844 328.617188 C 499.339844 382.140625 464.078125 427.378906 415.628906 442.164062 C 367.179688 427.378906 331.917969 382.140625 331.917969 328.617188 C 331.917969 275.089844 367.179688 229.839844 415.628906 215.054688 Z M 415.628906 215.054688 " fill-opacity="1" fill-rule="nonzero"></path><path fill="#eaaa00" d="M 563.214844 168.871094 L 464.019531 219.691406 L 514.824219 269.78125 Z M 563.214844 168.871094 " fill-opacity="1" fill-rule="nonzero"></path><path fill="#eaaa00" d="M 564.386719 489.769531 L 516.460938 388.765625 L 465.296875 438.488281 Z M 564.386719 489.769531 " fill-opacity="1" fill-rule="nonzero"></path><g clip-path="url(#1f8c9155bc)"><path fill="#eaaa00" d="M 422.648438 205.8125 C 422.648438 207.371094 383.9375 206.460938 364.582031 205.8125 C 362.726562 184.984375 365.5 137.4375 391.4375 113.898438 C 417.371094 90.363281 425.148438 39.898438 425.792969 17.609375 C 433.535156 23.6875 453.132812 87.394531 429.179688 125.328125 C 405.226562 163.261719 422.648438 203.867188 422.648438 205.8125 Z M 422.648438 205.8125 " fill-opacity="1" fill-rule="nonzero"></path></g><g clip-path="url(#ed5a62e009)"><path fill="#eaaa00" d="M 521.488281 348.992188 C 519.9375 348.992188 520.84375 310.085938 521.488281 290.632812 C 542.214844 288.769531 589.519531 291.558594 612.941406 317.625 C 636.359375 343.691406 686.570312 351.503906 708.75 352.152344 C 702.703125 359.933594 639.3125 379.628906 601.570312 355.558594 C 563.828125 331.484375 523.421875 348.992188 521.488281 348.992188 Z M 521.488281 348.992188 " fill-opacity="1" fill-rule="nonzero"></path></g><g clip-path="url(#3898f32123)"><path fill="#eaaa00" d="M 382.390625 456.402344 C 382.390625 454.847656 421.105469 455.753906 440.457031 456.402344 C 442.3125 477.234375 439.539062 524.78125 413.601562 548.316406 C 387.667969 571.855469 379.890625 622.316406 379.246094 644.609375 C 371.503906 638.527344 351.90625 574.820312 375.859375 536.890625 C 399.8125 498.957031 382.390625 458.347656 382.390625 456.402344 Z M 382.390625 456.402344 " fill-opacity="1" fill-rule="nonzero"></path></g><path fill="#03ccd9" d="M 296.109375 486.195312 L 308.273438 512.390625 L 334.335938 524.617188 L 308.273438 536.839844 L 296.109375 563.035156 L 283.945312 536.839844 L 257.882812 524.617188 L 283.945312 512.390625 Z M 296.109375 486.195312 " fill-opacity="1" fill-rule="nonzero"></path><path fill="#03ccd9" d="M 215.300781 400.101562 L 227.464844 426.296875 L 253.527344 438.519531 L 227.464844 450.746094 L 215.300781 476.941406 L 203.136719 450.746094 L 177.074219 438.519531 L 203.136719 426.296875 Z M 215.300781 400.101562 " fill-opacity="1" fill-rule="nonzero"></path><path fill="#03ccd9" d="M 215.300781 176.371094 L 227.464844 202.5625 L 253.527344 214.789062 L 227.464844 227.015625 L 215.300781 253.207031 L 203.136719 227.015625 L 177.074219 214.789062 L 203.136719 202.5625 Z M 215.300781 176.371094 " fill-opacity="1" fill-rule="nonzero"></path><path fill="#03ccd9" d="M 296.109375 94.210938 L 308.273438 120.40625 L 334.335938 132.628906 L 308.273438 144.855469 L 296.109375 171.050781 L 283.945312 144.855469 L 257.882812 132.628906 L 283.945312 120.40625 Z M 296.109375 94.210938 " fill-opacity="1" fill-rule="nonzero"></path><g clip-path="url(#572db1af8b)"><path fill="#03ccd9" d="M 134.492188 275.585938 L 151.277344 311.726562 L 187.238281 328.59375 L 151.277344 345.460938 L 134.492188 381.601562 L 117.710938 345.460938 L 81.75 328.59375 L 117.710938 311.726562 Z M 134.492188 275.585938 " fill-opacity="1" fill-rule="nonzero"></path></g><path fill="#ffc229" d="M 415.628906 215.03125 C 300.851562 308.015625 367.804688 405.265625 415.628906 442.144531 C 410.308594 440.441406 406.519531 438.816406 401.597656 436.792969 C 396.269531 434.605469 390.601562 431.136719 385.386719 427.796875 C 372.097656 419.285156 360.949219 407.613281 351.757812 393.996094 C 342.988281 381.566406 332.886719 359.226562 332.160156 333.207031 C 331.019531 308.164062 338.457031 277.578125 359.984375 251.992188 C 382.484375 225.246094 408.371094 217.707031 415.628906 215.03125 Z M 415.628906 215.03125 " fill-opacity="1" fill-rule="nonzero"></path></svg>