<svg xmlns="http://www.w3.org/2000/svg" xmlns:xlink="http://www.w3.org/1999/xlink" width="1600" zoomAndPan="magnify" viewBox="0 0 1200 299.999988" height="400" preserveAspectRatio="xMidYMid meet" version="1.0"><defs><g></g><clipPath id="218e36da2c"><rect x="0" width="1018" y="0" height="174"></rect></clipPath><clipPath id="ed2cb30eab"><path d="M 146 113 L 203.769531 113 L 203.769531 138 L 146 138 Z M 146 113 " clip-rule="nonzero"></path></clipPath><clipPath id="3af9485d10"><path d="M 11.769531 108 L 45 108 L 45 142 L 11.769531 142 Z M 11.769531 108 " clip-rule="nonzero"></path></clipPath></defs><g transform="matrix(1, 0, 0, 1, 163, 58)"><g clip-path="url(#218e36da2c)"><g fill="#03ccd9" fill-opacity="1"><g transform="translate(1.36533, 132.366006)"><g><path d="M 100.390625 -108.53125 L 56.46875 -64.59375 L 100.390625 0 L 72.40625 0 L 39.859375 -48 L 30.421875 -38.5625 L 30.421875 0 L 7.328125 0 L 7.328125 -108.53125 L 30.421875 -108.53125 L 30.421875 -71.265625 L 67.6875 -108.53125 Z M 100.390625 -108.53125 "></path></g></g></g><g fill="#03ccd9" fill-opacity="1"><g transform="translate(101.596985, 132.366006)"><g><path d="M 29.9375 -91.453125 L 6.828125 -91.453125 L 6.828125 -108.53125 L 29.9375 -108.53125 Z M 29.9375 0 L 6.828125 0 L 6.828125 -85.421875 L 29.9375 -85.421875 Z M 29.9375 0 "></path></g></g></g><g fill="#03ccd9" fill-opacity="1"><g transform="translate(138.37027, 132.366006)"><g><path d="M 72.078125 -108.53125 L 95.03125 -108.53125 L 95.03125 0 L 72.078125 0 L 72.078125 -5.6875 C 64.921875 -1.894531 57.222656 0 48.984375 0 C 36.179688 0 25.273438 -4.175781 16.265625 -12.53125 C 7.265625 -20.882812 2.765625 -30.945312 2.765625 -42.71875 C 2.765625 -54.488281 7.265625 -64.546875 16.265625 -72.890625 C 25.273438 -81.242188 36.179688 -85.421875 48.984375 -85.421875 C 57.222656 -85.421875 64.921875 -83.523438 72.078125 -79.734375 Z M 65.90625 -29.453125 C 70.019531 -33.242188 72.078125 -37.660156 72.078125 -42.703125 C 72.078125 -47.753906 70.019531 -52.175781 65.90625 -55.96875 C 61.34375 -60.207031 55.695312 -62.328125 48.96875 -62.328125 C 42.25 -62.328125 36.554688 -60.207031 31.890625 -55.96875 C 27.878906 -52.175781 25.875 -47.753906 25.875 -42.703125 C 25.875 -37.660156 27.878906 -33.242188 31.890625 -29.453125 C 36.554688 -25.222656 42.25 -23.109375 48.96875 -23.109375 C 55.695312 -23.109375 61.34375 -25.222656 65.90625 -29.453125 Z M 65.90625 -29.453125 "></path></g></g></g><g fill="#03ccd9" fill-opacity="1"><g transform="translate(240.391798, 132.366006)"><g><path d="M 74.03125 -85.421875 L 96.984375 -85.421875 L 96.984375 0 L 74.03125 0 L 74.03125 -5.6875 C 66.875 -1.894531 59.175781 0 50.9375 0 C 38.238281 0 27.382812 -4.144531 18.375 -12.4375 C 9.375 -20.738281 4.820312 -30.75 4.71875 -42.46875 C 4.71875 -42.46875 4.71875 -42.519531 4.71875 -42.625 L 4.71875 -85.421875 L 27.828125 -85.421875 L 27.828125 -42.625 C 27.828125 -37.632812 29.832031 -33.242188 33.84375 -29.453125 C 38.507812 -25.222656 44.203125 -23.109375 50.921875 -23.109375 C 57.648438 -23.109375 63.296875 -25.222656 67.859375 -29.453125 C 71.972656 -33.242188 74.03125 -37.632812 74.03125 -42.625 Z M 74.03125 -85.421875 "></path></g></g></g><g fill="#03ccd9" fill-opacity="1"><g transform="translate(344.365902, 132.366006)"><g><path d="M 99.09375 -42.953125 C 99.09375 -42.847656 99.09375 -42.738281 99.09375 -42.625 L 99.09375 0 L 76.15625 0 L 76.15625 -42.625 C 76.15625 -47.726562 74.09375 -52.175781 69.96875 -55.96875 C 65.414062 -60.207031 59.773438 -62.328125 53.046875 -62.328125 C 46.316406 -62.328125 40.617188 -60.207031 35.953125 -55.96875 C 31.941406 -52.175781 29.9375 -47.726562 29.9375 -42.625 L 29.9375 0 L 6.828125 0 L 6.828125 -85.421875 L 29.9375 -85.421875 L 29.9375 -79.734375 C 36.988281 -83.523438 44.691406 -85.421875 53.046875 -85.421875 C 65.734375 -85.421875 76.578125 -81.269531 85.578125 -72.96875 C 94.585938 -64.675781 99.09375 -54.671875 99.09375 -42.953125 Z M 99.09375 -42.953125 "></path></g></g></g><g fill="#03ccd9" fill-opacity="1"><g transform="translate(448.502709, 132.366006)"><g><path d="M 72.25 -85.421875 L 95.1875 -85.421875 L 95.1875 0 L 72.25 0 L 72.25 -5.6875 C 65.082031 -1.894531 57.378906 0 49.140625 0 C 36.335938 0 25.429688 -4.175781 16.421875 -12.53125 C 7.421875 -20.882812 2.921875 -30.945312 2.921875 -42.71875 C 2.921875 -54.488281 7.421875 -64.546875 16.421875 -72.890625 C 25.429688 -81.242188 36.335938 -85.421875 49.140625 -85.421875 C 57.378906 -85.421875 65.082031 -83.523438 72.25 -79.734375 Z M 66.0625 -29.453125 C 70.1875 -33.242188 72.25 -37.660156 72.25 -42.703125 C 72.25 -47.753906 70.1875 -52.175781 66.0625 -55.96875 C 61.507812 -60.207031 55.867188 -62.328125 49.140625 -62.328125 C 42.410156 -62.328125 36.71875 -60.207031 32.0625 -55.96875 C 28.039062 -52.175781 26.03125 -47.753906 26.03125 -42.703125 C 26.03125 -37.660156 28.039062 -33.242188 32.0625 -29.453125 C 36.71875 -25.222656 42.410156 -23.109375 49.140625 -23.109375 C 55.867188 -23.109375 61.507812 -25.222656 66.0625 -29.453125 Z M 66.0625 -29.453125 "></path></g></g></g><g fill="#03ccd9" fill-opacity="1"><g transform="translate(550.68694, 132.366006)"><g><path d="M 68.828125 -85.421875 L 93.71875 -85.421875 L 59.390625 0 L 34.328125 0 L 0 -85.421875 L 24.890625 -85.421875 L 46.859375 -30.59375 Z M 68.828125 -85.421875 "></path></g></g></g><g fill="#03ccd9" fill-opacity="1"><g transform="translate(644.572766, 132.366006)"><g><path d="M 95.1875 -42.625 C 95.1875 -38.726562 94.644531 -34.878906 93.5625 -31.078125 L 30.421875 -31.078125 C 30.960938 -30.535156 31.507812 -29.992188 32.0625 -29.453125 C 36.71875 -25.222656 42.410156 -23.109375 49.140625 -23.109375 C 54.890625 -23.109375 59.9375 -24.734375 64.28125 -27.984375 L 90.640625 -23.921875 C 86.734375 -16.765625 81.0625 -10.988281 73.625 -6.59375 C 66.195312 -2.195312 58.035156 0 49.140625 0 C 36.335938 0 25.429688 -4.175781 16.421875 -12.53125 C 7.421875 -20.882812 2.921875 -30.945312 2.921875 -42.71875 C 2.921875 -54.488281 7.421875 -64.546875 16.421875 -72.890625 C 25.429688 -81.242188 36.335938 -85.421875 49.140625 -85.421875 C 59.554688 -85.421875 68.882812 -82.492188 77.125 -76.640625 C 85.375 -70.785156 90.851562 -63.300781 93.5625 -54.1875 C 94.320312 -51.6875 94.8125 -49.132812 95.03125 -46.53125 C 95.132812 -45.34375 95.1875 -44.039062 95.1875 -42.625 Z M 30.421875 -54.1875 L 67.6875 -54.1875 C 67.144531 -54.832031 66.601562 -55.425781 66.0625 -55.96875 C 61.507812 -60.207031 55.867188 -62.328125 49.140625 -62.328125 C 42.410156 -62.328125 36.71875 -60.207031 32.0625 -55.96875 C 31.507812 -55.425781 30.960938 -54.832031 30.421875 -54.1875 Z M 30.421875 -54.1875 "></path></g></g></g><g fill="#03ccd9" fill-opacity="1"><g transform="translate(742.689147, 132.366006)"><g><path d="M 53.046875 -85.421875 C 60.097656 -85.421875 66.769531 -84.015625 73.0625 -81.203125 L 64.4375 -59.71875 C 60.96875 -61.457031 57.171875 -62.328125 53.046875 -62.328125 C 46.316406 -62.328125 40.617188 -60.207031 35.953125 -55.96875 C 31.941406 -52.175781 29.9375 -47.726562 29.9375 -42.625 L 29.9375 0 L 6.828125 0 L 6.828125 -85.421875 L 29.9375 -85.421875 L 29.9375 -79.734375 C 36.988281 -83.523438 44.691406 -85.421875 53.046875 -85.421875 Z M 53.046875 -85.421875 "></path></g></g></g><g fill="#03ccd9" fill-opacity="1"><g transform="translate(816.073015, 132.366006)"><g><path d="M 77.78125 -49.46875 C 81.570312 -48.269531 84.796875 -46.664062 87.453125 -44.65625 C 90.117188 -42.65625 92.046875 -40.566406 93.234375 -38.390625 C 94.429688 -36.222656 95.242188 -34.242188 95.671875 -32.453125 C 96.109375 -30.671875 96.328125 -28.859375 96.328125 -27.015625 C 96.328125 -25.171875 96.109375 -23.296875 95.671875 -21.390625 C 95.242188 -19.492188 94.347656 -17.242188 92.984375 -14.640625 C 91.628906 -12.035156 89.40625 -9.648438 86.3125 -7.484375 C 83.226562 -5.316406 79.40625 -3.582031 74.84375 -2.28125 C 69.09375 -0.757812 60.898438 0 50.265625 0 C 39.640625 0 31.398438 -0.757812 25.546875 -2.28125 C 19.796875 -3.90625 15.128906 -6.34375 11.546875 -9.59375 C 6.554688 -14.257812 4.0625 -20.066406 4.0625 -27.015625 L 27.171875 -27.015625 C 27.171875 -26.898438 27.171875 -26.734375 27.171875 -26.515625 C 28.253906 -25.429688 30.75 -24.566406 34.65625 -23.921875 C 38.125 -23.378906 43.332031 -23.109375 50.28125 -23.109375 C 65.570312 -23.109375 73.21875 -24.242188 73.21875 -26.515625 C 73.21875 -27.492188 71.210938 -28.363281 67.203125 -29.125 C 63.191406 -29.882812 59.175781 -30.425781 55.15625 -30.75 L 49.140625 -31.078125 C 36.773438 -32.378906 27.988281 -33.898438 22.78125 -35.640625 C 18.976562 -36.941406 15.75 -38.566406 13.09375 -40.515625 C 10.4375 -42.472656 8.507812 -44.5625 7.3125 -46.78125 C 6.125 -49.007812 5.285156 -51.015625 4.796875 -52.796875 C 4.304688 -54.585938 4.0625 -56.40625 4.0625 -58.25 C 4.0625 -60.09375 4.304688 -61.988281 4.796875 -63.9375 C 5.285156 -65.894531 6.179688 -68.148438 7.484375 -70.703125 C 8.785156 -73.253906 10.984375 -75.640625 14.078125 -77.859375 C 17.171875 -80.085938 20.992188 -81.796875 25.546875 -82.984375 C 31.398438 -84.609375 39.644531 -85.421875 50.28125 -85.421875 C 60.90625 -85.421875 69.148438 -84.554688 75.015625 -82.828125 C 80.867188 -81.203125 85.585938 -78.648438 89.171875 -75.171875 C 93.941406 -70.398438 96.328125 -64.4375 96.328125 -57.28125 L 73.390625 -57.28125 C 73.390625 -57.925781 73.222656 -58.410156 72.890625 -58.734375 C 72.140625 -59.492188 70.734375 -60.144531 68.671875 -60.6875 C 64.867188 -61.78125 58.738281 -62.328125 50.28125 -62.328125 C 34.875 -62.328125 27.171875 -61.128906 27.171875 -58.734375 C 27.171875 -57.867188 29.203125 -57.054688 33.265625 -56.296875 C 37.335938 -55.535156 41.382812 -54.941406 45.40625 -54.515625 L 51.578125 -54.015625 C 63.941406 -52.710938 72.675781 -51.195312 77.78125 -49.46875 Z M 77.78125 -49.46875 "></path></g></g></g><g fill="#03ccd9" fill-opacity="1"><g transform="translate(916.630152, 132.366006)"><g><path d="M 95.1875 -42.625 C 95.1875 -38.726562 94.644531 -34.878906 93.5625 -31.078125 L 30.421875 -31.078125 C 30.960938 -30.535156 31.507812 -29.992188 32.0625 -29.453125 C 36.71875 -25.222656 42.410156 -23.109375 49.140625 -23.109375 C 54.890625 -23.109375 59.9375 -24.734375 64.28125 -27.984375 L 90.640625 -23.921875 C 86.734375 -16.765625 81.0625 -10.988281 73.625 -6.59375 C 66.195312 -2.195312 58.035156 0 49.140625 0 C 36.335938 0 25.429688 -4.175781 16.421875 -12.53125 C 7.421875 -20.882812 2.921875 -30.945312 2.921875 -42.71875 C 2.921875 -54.488281 7.421875 -64.546875 16.421875 -72.890625 C 25.429688 -81.242188 36.335938 -85.421875 49.140625 -85.421875 C 59.554688 -85.421875 68.882812 -82.492188 77.125 -76.640625 C 85.375 -70.785156 90.851562 -63.300781 93.5625 -54.1875 C 94.320312 -51.6875 94.8125 -49.132812 95.03125 -46.53125 C 95.132812 -45.34375 95.1875 -44.039062 95.1875 -42.625 Z M 30.421875 -54.1875 L 67.6875 -54.1875 C 67.144531 -54.832031 66.601562 -55.425781 66.0625 -55.96875 C 61.507812 -60.207031 55.867188 -62.328125 49.140625 -62.328125 C 42.410156 -62.328125 36.71875 -60.207031 32.0625 -55.96875 C 31.507812 -55.425781 30.960938 -54.832031 30.421875 -54.1875 Z M 30.421875 -54.1875 "></path></g></g></g></g></g><path fill="#03ccd9" d="M 91.632812 88.976562 C 95.484375 88.976562 99.191406 89.582031 102.671875 90.703125 C 88.105469 95.390625 77.558594 109.113281 77.558594 125.3125 C 77.558594 141.511719 88.105469 155.230469 102.671875 159.917969 C 99.191406 161.039062 95.484375 161.648438 91.632812 161.648438 C 71.667969 161.648438 55.480469 145.378906 55.480469 125.3125 C 55.480469 105.242188 71.667969 88.976562 91.632812 88.976562 Z M 91.632812 88.976562 " fill-opacity="1" fill-rule="nonzero"></path><path fill="#fff6d5" d="M 91.632812 88.976562 C 93.113281 88.976562 94.574219 89.066406 96.003906 89.238281 C 78.097656 91.410156 64.222656 106.730469 64.222656 125.3125 C 64.222656 143.890625 78.097656 159.214844 96.003906 161.382812 C 94.574219 161.554688 93.113281 161.648438 91.632812 161.648438 C 71.667969 161.648438 55.480469 145.378906 55.480469 125.3125 C 55.480469 105.242188 71.667969 88.976562 91.632812 88.976562 Z M 91.632812 88.976562 " fill-opacity="1" fill-rule="nonzero"></path><path fill="#eaaa00" d="M 114.007812 90.460938 C 128.84375 94.988281 139.640625 108.847656 139.640625 125.238281 C 139.640625 141.625 128.84375 155.480469 114.007812 160.007812 C 99.171875 155.480469 88.375 141.625 88.375 125.238281 C 88.375 108.847656 99.171875 94.988281 114.007812 90.460938 Z M 114.007812 90.460938 " fill-opacity="1" fill-rule="nonzero"></path><path fill="#eaaa00" d="M 159.203125 76.320312 L 128.828125 91.882812 L 144.382812 107.21875 Z M 159.203125 76.320312 " fill-opacity="1" fill-rule="nonzero"></path><path fill="#eaaa00" d="M 159.5625 174.585938 L 144.886719 143.65625 L 129.21875 158.882812 Z M 159.5625 174.585938 " fill-opacity="1" fill-rule="nonzero"></path><path fill="#eaaa00" d="M 116.15625 87.632812 C 116.15625 88.109375 104.304688 87.832031 98.375 87.632812 C 97.808594 81.253906 98.65625 66.695312 106.601562 59.484375 C 114.542969 52.277344 116.921875 36.824219 117.121094 30 C 119.492188 31.863281 125.492188 51.371094 118.15625 62.984375 C 110.824219 74.601562 116.15625 87.035156 116.15625 87.632812 Z M 116.15625 87.632812 " fill-opacity="1" fill-rule="nonzero"></path><g clip-path="url(#ed2cb30eab)"><path fill="#eaaa00" d="M 146.425781 131.476562 C 145.949219 131.476562 146.226562 119.5625 146.425781 113.605469 C 152.769531 113.035156 167.257812 113.890625 174.429688 121.871094 C 181.601562 129.851562 196.976562 132.246094 203.769531 132.445312 C 201.917969 134.828125 182.503906 140.859375 170.949219 133.488281 C 159.390625 126.113281 147.015625 131.476562 146.425781 131.476562 Z M 146.425781 131.476562 " fill-opacity="1" fill-rule="nonzero"></path></g><path fill="#eaaa00" d="M 103.832031 164.367188 C 103.832031 163.890625 115.683594 164.167969 121.613281 164.367188 C 122.179688 170.746094 121.332031 185.304688 113.386719 192.515625 C 105.445312 199.722656 103.066406 215.171875 102.867188 222 C 100.496094 220.136719 94.496094 200.628906 101.832031 189.015625 C 109.164062 177.398438 103.832031 164.964844 103.832031 164.367188 Z M 103.832031 164.367188 " fill-opacity="1" fill-rule="nonzero"></path><path fill="#03ccd9" d="M 77.410156 173.492188 L 81.132812 181.511719 L 89.117188 185.253906 L 81.132812 189 L 77.410156 197.019531 L 73.683594 189 L 65.703125 185.253906 L 73.683594 181.511719 Z M 77.410156 173.492188 " fill-opacity="1" fill-rule="nonzero"></path><path fill="#03ccd9" d="M 52.664062 147.128906 L 56.390625 155.148438 L 64.371094 158.890625 L 56.390625 162.636719 L 52.664062 170.65625 L 48.941406 162.636719 L 40.957031 158.890625 L 48.941406 155.148438 Z M 52.664062 147.128906 " fill-opacity="1" fill-rule="nonzero"></path><path fill="#03ccd9" d="M 52.664062 78.617188 L 56.390625 86.636719 L 64.371094 90.378906 L 56.390625 94.125 L 52.664062 102.144531 L 48.941406 94.125 L 40.957031 90.378906 L 48.941406 86.636719 Z M 52.664062 78.617188 " fill-opacity="1" fill-rule="nonzero"></path><path fill="#03ccd9" d="M 77.410156 53.457031 L 81.132812 61.480469 L 89.117188 65.222656 L 81.132812 68.964844 L 77.410156 76.988281 L 73.683594 68.964844 L 65.703125 65.222656 L 73.683594 61.480469 Z M 77.410156 53.457031 " fill-opacity="1" fill-rule="nonzero"></path><g clip-path="url(#3af9485d10)"><path fill="#03ccd9" d="M 27.917969 108.996094 L 33.058594 120.066406 L 44.070312 125.230469 L 33.058594 130.394531 L 27.917969 141.460938 L 22.78125 130.394531 L 11.769531 125.230469 L 22.78125 120.066406 Z M 27.917969 108.996094 " fill-opacity="1" fill-rule="nonzero"></path></g><path fill="#ffc229" d="M 114.007812 90.457031 C 78.863281 118.929688 99.363281 148.707031 114.007812 160 C 112.378906 159.480469 111.21875 158.984375 109.710938 158.363281 C 108.082031 157.691406 106.34375 156.628906 104.746094 155.609375 C 100.679688 153 97.265625 149.429688 94.449219 145.257812 C 91.765625 141.453125 88.671875 134.609375 88.449219 126.644531 C 88.097656 118.972656 90.378906 109.609375 96.96875 101.773438 C 103.859375 93.582031 111.785156 91.273438 114.007812 90.457031 Z M 114.007812 90.457031 " fill-opacity="1" fill-rule="nonzero"></path></svg>