<svg xmlns="http://www.w3.org/2000/svg" xmlns:xlink="http://www.w3.org/1999/xlink" width="1200" zoomAndPan="magnify" viewBox="0 0 900 299.999988" height="400" preserveAspectRatio="xMidYMid meet" version="1.0"><defs><g></g><clipPath id="77a51f60c8"><rect x="0" width="688" y="0" height="215"></rect></clipPath><clipPath id="483f416d83"><path d="M 128 35.957031 L 158 35.957031 L 158 108 L 128 108 Z M 128 35.957031 " clip-rule="nonzero"></path></clipPath><clipPath id="afd8dd5648"><path d="M 187 138 L 258.75 138 L 258.75 169 L 187 169 Z M 187 138 " clip-rule="nonzero"></path></clipPath><clipPath id="9833616e4f"><path d="M 128 201 L 158 201 L 158 272.957031 L 128 272.957031 Z M 128 201 " clip-rule="nonzero"></path></clipPath><clipPath id="998d4adecd"><path d="M 21.75 133 L 62 133 L 62 174 L 21.75 174 Z M 21.75 133 " clip-rule="nonzero"></path></clipPath></defs><g transform="matrix(1, 0, 0, 1, 203, 65)"><g clip-path="url(#77a51f60c8)"><g fill="#03ccd9" fill-opacity="1"><g transform="translate(1.626051, 164.201289)"><g><path d="M 124.296875 -134.375 L 69.90625 -79.984375 L 124.296875 0 L 89.640625 0 L 49.359375 -59.421875 L 37.671875 -47.75 L 37.671875 0 L 9.0625 0 L 9.0625 -134.375 L 37.671875 -134.375 L 37.671875 -88.234375 L 53.59375 -104.15625 L 83.796875 -134.375 Z M 124.296875 -134.375 "></path></g></g></g><g fill="#03ccd9" fill-opacity="1"><g transform="translate(125.725548, 164.201289)"><g><path d="M 37.0625 -113.21875 L 8.46875 -113.21875 L 8.46875 -134.375 L 37.0625 -134.375 Z M 37.0625 0 L 8.46875 0 L 8.46875 -105.765625 L 37.0625 -105.765625 Z M 37.0625 0 "></path></g></g></g><g fill="#03ccd9" fill-opacity="1"><g transform="translate(171.255537, 164.201289)"><g><path d="M 89.25 -134.375 L 117.65625 -134.375 L 117.65625 0 L 89.25 0 L 89.25 -7.046875 C 80.382812 -2.347656 70.847656 0 60.640625 0 C 44.785156 0 31.285156 -5.171875 20.140625 -15.515625 C 8.992188 -25.859375 3.421875 -38.3125 3.421875 -52.875 C 3.421875 -67.445312 8.992188 -79.90625 20.140625 -90.25 C 31.285156 -100.59375 44.785156 -105.765625 60.640625 -105.765625 C 70.847656 -105.765625 80.382812 -103.414062 89.25 -98.71875 Z M 81.59375 -36.46875 C 86.695312 -41.164062 89.25 -46.632812 89.25 -52.875 C 89.25 -59.125 86.695312 -64.597656 81.59375 -69.296875 C 75.945312 -74.535156 68.957031 -77.15625 60.625 -77.15625 C 52.300781 -77.15625 45.253906 -74.535156 39.484375 -69.296875 C 34.515625 -64.597656 32.03125 -59.125 32.03125 -52.875 C 32.03125 -46.632812 34.515625 -41.164062 39.484375 -36.46875 C 45.253906 -31.226562 52.300781 -28.609375 60.625 -28.609375 C 68.957031 -28.609375 75.945312 -31.226562 81.59375 -36.46875 Z M 81.59375 -36.46875 "></path></g></g></g><g fill="#03ccd9" fill-opacity="1"><g transform="translate(297.571124, 164.201289)"><g><path d="M 91.65625 -105.765625 L 120.0625 -105.765625 L 120.0625 0 L 91.65625 0 L 91.65625 -7.046875 C 82.789062 -2.347656 73.257812 0 63.0625 0 C 47.34375 0 33.910156 -5.132812 22.765625 -15.40625 C 11.617188 -25.6875 5.976562 -38.078125 5.84375 -52.578125 C 5.84375 -52.578125 5.84375 -52.644531 5.84375 -52.78125 L 5.84375 -105.765625 L 34.453125 -105.765625 L 34.453125 -52.78125 C 34.453125 -46.601562 36.9375 -41.164062 41.90625 -36.46875 C 47.675781 -31.226562 54.722656 -28.609375 63.046875 -28.609375 C 71.378906 -28.609375 78.363281 -31.226562 84 -36.46875 C 89.101562 -41.164062 91.65625 -46.601562 91.65625 -52.78125 Z M 91.65625 -105.765625 "></path></g></g></g><g fill="#03ccd9" fill-opacity="1"><g transform="translate(426.304248, 164.201289)"><g><path d="M 122.6875 -53.1875 C 122.6875 -53.050781 122.6875 -52.914062 122.6875 -52.78125 L 122.6875 0 L 94.28125 0 L 94.28125 -52.78125 C 94.28125 -59.09375 91.726562 -64.597656 86.625 -69.296875 C 80.976562 -74.535156 73.992188 -77.15625 65.671875 -77.15625 C 57.347656 -77.15625 50.296875 -74.535156 44.515625 -69.296875 C 39.546875 -64.597656 37.0625 -59.09375 37.0625 -52.78125 L 37.0625 0 L 8.46875 0 L 8.46875 -105.765625 L 37.0625 -105.765625 L 37.0625 -98.71875 C 45.789062 -103.414062 55.328125 -105.765625 65.671875 -105.765625 C 81.390625 -105.765625 94.820312 -100.625 105.96875 -90.34375 C 117.113281 -80.070312 122.6875 -67.6875 122.6875 -53.1875 Z M 122.6875 -53.1875 "></path></g></g></g><g fill="#03ccd9" fill-opacity="1"><g transform="translate(555.238819, 164.201289)"><g><path d="M 89.4375 -105.765625 L 117.84375 -105.765625 L 117.84375 0 L 89.4375 0 L 89.4375 -7.046875 C 80.582031 -2.347656 71.050781 0 60.84375 0 C 44.988281 0 31.488281 -5.171875 20.34375 -15.515625 C 9.195312 -25.859375 3.625 -38.3125 3.625 -52.875 C 3.625 -67.445312 9.195312 -79.90625 20.34375 -90.25 C 31.488281 -100.59375 44.988281 -105.765625 60.84375 -105.765625 C 71.050781 -105.765625 80.582031 -103.414062 89.4375 -98.71875 Z M 81.796875 -36.46875 C 86.890625 -41.164062 89.4375 -46.632812 89.4375 -52.875 C 89.4375 -59.125 86.890625 -64.597656 81.796875 -69.296875 C 76.148438 -74.535156 69.160156 -77.15625 60.828125 -77.15625 C 52.503906 -77.15625 45.457031 -74.535156 39.6875 -69.296875 C 34.71875 -64.597656 32.234375 -59.125 32.234375 -52.875 C 32.234375 -46.632812 34.71875 -41.164062 39.6875 -36.46875 C 45.457031 -31.226562 52.503906 -28.609375 60.828125 -28.609375 C 69.160156 -28.609375 76.148438 -31.226562 81.796875 -36.46875 Z M 81.796875 -36.46875 "></path></g></g></g></g></g><path fill="#03ccd9" d="M 120.335938 108.753906 C 125.085938 108.753906 129.664062 109.503906 133.960938 110.886719 C 115.976562 116.675781 102.960938 133.613281 102.960938 153.609375 C 102.960938 173.601562 115.976562 190.539062 133.960938 196.328125 C 129.664062 197.710938 125.085938 198.460938 120.335938 198.460938 C 95.6875 198.460938 75.707031 178.378906 75.707031 153.609375 C 75.707031 128.835938 95.6875 108.757812 120.335938 108.753906 Z M 120.335938 108.753906 " fill-opacity="1" fill-rule="nonzero"></path><path fill="#fff6d5" d="M 120.335938 108.753906 C 122.160156 108.753906 123.960938 108.867188 125.730469 109.082031 C 103.628906 111.757812 86.496094 130.671875 86.496094 153.609375 C 86.5 176.542969 103.628906 195.457031 125.730469 198.132812 C 123.960938 198.347656 122.160156 198.460938 120.335938 198.460938 C 95.6875 198.460938 75.707031 178.378906 75.707031 153.609375 C 75.707031 128.835938 95.6875 108.757812 120.335938 108.753906 Z M 120.335938 108.753906 " fill-opacity="1" fill-rule="nonzero"></path><path fill="#eaaa00" d="M 147.953125 110.589844 C 166.265625 116.179688 179.59375 133.285156 179.59375 153.515625 C 179.59375 173.746094 166.265625 190.847656 147.953125 196.4375 C 129.640625 190.847656 116.3125 173.746094 116.3125 153.515625 C 116.3125 133.285156 129.640625 116.179688 147.953125 110.589844 Z M 147.953125 110.589844 " fill-opacity="1" fill-rule="nonzero"></path><path fill="#eaaa00" d="M 203.738281 93.132812 L 166.242188 112.34375 L 185.449219 131.277344 Z M 203.738281 93.132812 " fill-opacity="1" fill-rule="nonzero"></path><path fill="#eaaa00" d="M 204.183594 214.429688 L 186.066406 176.25 L 166.726562 195.046875 Z M 204.183594 214.429688 " fill-opacity="1" fill-rule="nonzero"></path><g clip-path="url(#483f416d83)"><path fill="#eaaa00" d="M 150.605469 107.097656 C 150.605469 107.6875 135.972656 107.34375 128.65625 107.097656 C 127.957031 99.222656 129.003906 81.25 138.808594 72.355469 C 148.613281 63.457031 151.550781 44.382812 151.792969 35.957031 C 154.722656 38.253906 162.128906 62.335938 153.074219 76.675781 C 144.019531 91.011719 150.605469 106.363281 150.605469 107.097656 Z M 150.605469 107.097656 " fill-opacity="1" fill-rule="nonzero"></path></g><g clip-path="url(#afd8dd5648)"><path fill="#eaaa00" d="M 187.964844 161.21875 C 187.382812 161.21875 187.722656 146.511719 187.964844 139.160156 C 195.800781 138.453125 213.683594 139.507812 222.535156 149.359375 C 231.386719 159.214844 250.367188 162.167969 258.75 162.414062 C 256.464844 165.355469 232.503906 172.796875 218.238281 163.699219 C 203.96875 154.601562 188.699219 161.21875 187.964844 161.21875 Z M 187.964844 161.21875 " fill-opacity="1" fill-rule="nonzero"></path></g><g clip-path="url(#9833616e4f)"><path fill="#eaaa00" d="M 135.390625 201.816406 C 135.390625 201.230469 150.023438 201.574219 157.339844 201.816406 C 158.039062 209.691406 156.992188 227.664062 147.1875 236.5625 C 137.382812 245.457031 134.445312 264.53125 134.203125 272.957031 C 131.273438 270.660156 123.867188 246.578125 132.921875 232.242188 C 141.972656 217.902344 135.390625 202.554688 135.390625 201.816406 Z M 135.390625 201.816406 " fill-opacity="1" fill-rule="nonzero"></path></g><path fill="#03ccd9" d="M 102.777344 213.078125 L 107.375 222.980469 L 117.226562 227.601562 L 107.375 232.222656 L 102.777344 242.125 L 98.179688 232.222656 L 88.328125 227.601562 L 98.179688 222.980469 Z M 102.777344 213.078125 " fill-opacity="1" fill-rule="nonzero"></path><path fill="#03ccd9" d="M 72.230469 180.535156 L 76.828125 190.4375 L 86.679688 195.058594 L 76.828125 199.679688 L 72.230469 209.582031 L 67.632812 199.679688 L 57.78125 195.058594 L 67.632812 190.4375 Z M 72.230469 180.535156 " fill-opacity="1" fill-rule="nonzero"></path><path fill="#03ccd9" d="M 72.230469 95.96875 L 76.828125 105.871094 L 86.679688 110.492188 L 76.828125 115.109375 L 72.230469 125.011719 L 67.632812 115.109375 L 57.78125 110.492188 L 67.632812 105.871094 Z M 72.230469 95.96875 " fill-opacity="1" fill-rule="nonzero"></path><path fill="#03ccd9" d="M 102.777344 64.914062 L 107.375 74.8125 L 117.226562 79.433594 L 107.375 84.054688 L 102.777344 93.957031 L 98.179688 84.054688 L 88.328125 79.433594 L 98.179688 74.8125 Z M 102.777344 64.914062 " fill-opacity="1" fill-rule="nonzero"></path><g clip-path="url(#998d4adecd)"><path fill="#03ccd9" d="M 41.6875 133.46875 L 48.03125 147.132812 L 61.621094 153.507812 L 48.03125 159.882812 L 41.6875 173.542969 L 35.34375 159.882812 L 21.75 153.507812 L 35.34375 147.132812 Z M 41.6875 133.46875 " fill-opacity="1" fill-rule="nonzero"></path></g><path fill="#ffc229" d="M 147.953125 110.582031 C 104.570312 145.730469 129.875 182.488281 147.953125 196.429688 C 145.941406 195.785156 144.507812 195.171875 142.648438 194.40625 C 140.636719 193.578125 138.492188 192.265625 136.523438 191.003906 C 131.496094 187.789062 127.285156 183.375 123.808594 178.230469 C 120.496094 173.53125 116.675781 165.085938 116.402344 155.25 C 115.972656 145.785156 118.785156 134.222656 126.917969 124.554688 C 135.425781 114.441406 145.210938 111.59375 147.953125 110.582031 Z M 147.953125 110.582031 " fill-opacity="1" fill-rule="nonzero"></path></svg>